/* XPM */
static char *f2b97010c54140bbb3e12d3a6a2d3167746PYfDVMcwZ5C5a[] = {
/* columns rows colors chars-per-pixel */
"64 64 219 2 ",
"   c None",
".  c gray20",
"X  c #343434",
"o  c gray21",
"O  c #373737",
"+  c #3E3E3E",
"@  c #2B335D",
"#  c #3C477A",
"$  c #484848",
"%  c #494949",
"&  c #505050",
"*  c #515151",
"=  c gray32",
"-  c #555555",
";  c #565656",
":  c #5F5F5F",
">  c #606060",
",  c gray38",
"<  c #626262",
"1  c #646464",
"2  c #656565",
"3  c #686868",
"4  c DimGray",
"5  c gray42",
"6  c #6C6C6C",
"7  c gray44",
"8  c gray45",
"9  c #2D3C89",
"0  c #233795",
"q  c #1933B5",
"w  c #1A34B7",
"e  c #1532BF",
"r  c #253AA0",
"t  c #243AA5",
"y  c #243BA5",
"u  c #283EA8",
"i  c #2038B0",
"p  c #243DBE",
"a  c #31418A",
"s  c #314191",
"d  c #38499C",
"f  c #4B558F",
"g  c #435090",
"h  c #1735CA",
"j  c #1332CD",
"k  c #1F3AC9",
"l  c #1F3CCD",
"z  c #0C32D8",
"x  c #0F32DC",
"c  c #1033D9",
"v  c #1434D8",
"b  c #1E3DDB",
"n  c #1D3ADF",
"m  c #1837E6",
"M  c #173AE2",
"N  c #143CE5",
"B  c #1231EA",
"V  c #1533EA",
"C  c #1234EC",
"Z  c #1335EE",
"A  c #1738E8",
"S  c #072BF2",
"D  c #0328F5",
"F  c #0328F7",
"G  c #072FF4",
"H  c #072FF5",
"J  c #092EF3",
"K  c #0C2DF2",
"L  c #092CF5",
"P  c #0327F8",
"I  c #0127FC",
"U  c #0127FD",
"Y  c #0126FE",
"T  c #0127FE",
"R  c #0026FF",
"E  c #0126FF",
"W  c #0027FF",
"Q  c #0127FF",
"!  c #0326FF",
"~  c #0628F8",
"^  c #0728F8",
"/  c #042BF9",
"(  c #072BFA",
")  c #072CFB",
"_  c #0128FC",
"`  c #0128FD",
"'  c #0228FC",
"]  c #0329FD",
"[  c #0128FE",
"{  c #0028FF",
"}  c #0128FF",
"|  c #0029FF",
" . c #002AFF",
".. c #002BFF",
"X. c #062BFF",
"o. c #012CFE",
"O. c #002CFF",
"+. c #002DFF",
"@. c #012EFE",
"#. c #012FFE",
"$. c #002EFF",
"%. c #002FFF",
"&. c #082BFA",
"*. c #082AFC",
"=. c #092CFD",
"-. c #0A2DFD",
";. c #0A2EFC",
":. c #0A2FFC",
">. c #0C31F6",
",. c #0031FF",
"<. c #0132FE",
"1. c #0033FE",
"2. c #0133FE",
"3. c #0033FF",
"4. c #0036FF",
"5. c #0931F8",
"6. c #0038FF",
"7. c #013AFE",
"8. c #003AFF",
"9. c #003FFF",
"0. c #103AF0",
"q. c #2943C5",
"w. c #2A44C8",
"e. c #2843CC",
"r. c #2641D3",
"t. c #2643D6",
"y. c #2344D5",
"u. c #2645D6",
"i. c #196DDC",
"p. c #1C41EC",
"a. c #0144FE",
"s. c #0045FF",
"d. c #0146FE",
"f. c #0941FA",
"g. c #014CFE",
"h. c #004CFF",
"j. c #0050FF",
"k. c #0155FE",
"l. c #0055FF",
"z. c #0354FE",
"x. c #0159FE",
"c. c #3756EC",
"v. c #1966E9",
"b. c #0060FF",
"n. c #0065FF",
"m. c #0066FF",
"M. c #0068FF",
"N. c #006EFF",
"B. c #0173FE",
"V. c #2360F3",
"C. c #465DC3",
"Z. c #5062C0",
"A. c #5366CD",
"S. c #4096BB",
"D. c #2B98D9",
"F. c #1EBFDD",
"G. c #0587FA",
"H. c #0080FF",
"J. c #018FFE",
"K. c #0191FE",
"L. c #0196FE",
"P. c #0096FF",
"I. c #0199FE",
"U. c #009EFF",
"Y. c #2897F8",
"T. c #05A4FA",
"R. c #01A2FE",
"E. c #01A5FE",
"W. c #01AAFE",
"Q. c #01ABFE",
"!. c #00AAFF",
"~. c #0FBEF1",
"^. c #01B1FE",
"/. c #00B2FF",
"(. c #01B7FE",
"). c #01BCFE",
"_. c DeepSkyBlue",
"`. c #22A4F8",
"'. c #32AFF0",
"]. c #2BB3F7",
"[. c #29BBF2",
"{. c #6A9EC0",
"}. c #4BA8EE",
"|. c #63A3E8",
" X c #01C3FE",
".X c #01C5FE",
"XX c #05CAFA",
"oX c #01CAFE",
"OX c #0FCFFB",
"+X c #14C4F8",
"@X c #0EDCFA",
"#X c #16D0F8",
"$X c #20CCF6",
"%X c #01EFFE",
"&X c #01F7FE",
"*X c #07F8FA",
"=X c #05FAFA",
"-X c #07FAFA",
";X c #01F8FE",
":X c #00FAFF",
">X c #06F8FD",
",X c #01FCFE",
"<X c #01FDFE",
"1X c #00FDFF",
"2X c #03FCFE",
"3X c #02FDFE",
"4X c #00FEFE",
"5X c #01FEFE",
"6X c #00FEFF",
"7X c cyan",
"8X c #02FEFE",
"9X c #04FCFC",
"0X c #05FDFD",
"qX c #07FEFE",
"wX c #12F7F7",
"eX c #36E6E6",
"rX c #22F8F8",
"tX c #3DF2F2",
"yX c #4AE7E7",
/* pixels */
"                                                      ;.E E E E E E E E E E                                                     ",
"                                                m { E E E E E E E E E E E E { E { {                                             ",
"                                          J { { E E E E E E E E E E E E E E E E E { { {                                         ",
"                                      { E E E E E U.4X4X4X4X:XS.t.{ { q.g _ E E E E E E E &.                                    ",
"                                  { E E E E M.4X4X4X4X4X4X4X4X4X4XqX4X4X4X4X4XF.{ { E E E { G                                   ",
"                              K { E E E ).4X4X4X4X4X4X4XqX4X4X4X4X4X4X4X4X4X4X4X4X=XG.E E E E { b                               ",
"                            / E E E /.4X4X4X4X4X4X4X4X4X4X4X4X4X4X4X4X4X4X4X4X4X4X4X4X4XO.{ E E { e.                            ",
"                        n { E E j.&X4X4X4X4X4X4X4X4X4X4X4X4X4X4X4X4X4X4X4X4X4X4X4X4X4X4X4Xf.E E E E v                           ",
"                      V E E E E :X4X4X4X4X4X4X4X4X4X4X4X4X4X4X4X4X4X4X4X4X4X4X4X4X4X4X4X4X4XV.E E E E z                         ",
"                    t.E E E B.4X4X4X4X4X4X4X4X4X4X4X4X4X4X4X4X4X4X4X4X4X4X4X4X4X4X4X4X4X4X4X4X@XE E E { /                       ",
"                  C.E E E Q.4X4X4X4X,.E E { a.4X4X4X4X4X4X4X4X4X4X4X4X4X4X4X4X4X4X4X4X4X4X4X4X4X4Xx.E E E E A                   ",
"                  / E E .X4X4X4X9.E E E E E E E { { b.4X4X4X4X4X4X4X4X4X4X4Xa.E E 6.4X4X4X4X4X4X4X4XoX{ E E { L                 ",
"                q { E K.4X4X4Xa.E E E E E E E E E E E b.4X4X4X4X4X4X4X4X4XO.E E E E 6.4X4X4X4X4X4X4X4XOXE E E E 5.              ",
"              # E { :X4X4X4X4XE E E E E E E E E E E { { 4X4X4X4X4X4X4X4XO.E E E E E E { l.4X4X4X4X4X4X4X[.E E E E -.            ",
"            5 / 6.4X4X4X4X4X4XE E E E E E E E E E { E b.4X4X4X4X4X4X4Xl.E E E E E E E E E E ,.4X4X4X4X4X4XqXO.{ E {             ",
"            z 2.4X4X4X4X4X4X4XE E E E { O.E E E E { b.4X4X4X4X4X4X4X4X{ E E E E E E E E E E E { 4X4X4X4X4X4X4XO.E E E           ",
"          h E 4X4X4X4X4X4X4X4XE E E E E 4X4X4X4X4X4X4X4X4X4X4X4X4X4X,.E E E E E O.{ E E E E E E { 4X4X4X4X4X4X4XE E E X.        ",
"          E  X4X4X4X4X4X4X4X4XE E E E E 4X4X4X4X4X4X4X4X4X4X4X4X4X/.E E E E E { 4XN.E E E E E E { a.4X4X4X4X4X4XT.E E {         ",
"        c E 4X4X4X4X4X4X4X4X4XE E E E E 4X4X4X4X4X4X4X4X4X4X4X4X4X{ E E E E E /.4X4XN.E E E E E E E 4X4X4X4X4X4X4XE E E         ",
"        E W.4X4X4X4X4X4X4X4X4XE E E E E 4X4X4X4X4X4X4X4X4X4X4X4X4X{ E E E E O.4X4X4X4X4X2.E E E E E a.4X4X4X4X4X4XE E { p.      ",
"      v E 4X4X4X4X4X4X4X4X4X4XE E E E E 4X4X4X4X4X4X4X4X4X4X4X4XN.E E E E E 4X4X4X4X4X4X4X{ { E E E E 4X4X4X4X4X4Xg.E E {       ",
"      E E 4X4X4X4X4X4X4X4X4X4XE E E E E E E E E E E 6.4X4X4X4X4X{ { E E E E 4X4X4X4X4X4X4X/.E E E E E 4X4X4X4X4X4X=XE E E       ",
"    M E E 4X4X4X4X4X4X4X4X4X4XE E E E E E E E E E E E O.4X4X4X4XE E E E E a.4X4X4X4X4X4X4X4XE E E E E 4X4X4X4X4X4X4X{ E E N     ",
"    { E E 4X4X4X4X4X4X4X4X4X4X{ E E E E E E E E E E E { 2.4X4X4XE E E E E 4X4X4X4X4X4X4X4X4XE E E E E 4X4X4X4X4X4X4XXXE E {     ",
"  *.E E { 4X4X4X4X4X4X4X4X4X4X2.E { E E E E E E E E E E E 4X4X4XE E E E E 4X4X4X4X4X4X4X4X4XE E E E E 4X4X4X4X4X4X4X4XE E E     ",
"  { E E v.4X4X4X4X4X4X4X4X4X4X4X2.{ E E E E E E E E E E E 4X4X4XE E E E E 4X4X4X4X4X4X4X4X4XE E E E E 4X4X4X4X4X4X4X4XI.E {     ",
"  { E a.qX4X4X4X4X4X4X4X4X4X4X4X4X4X4X4X4X4X4X4XE E E E E 4X4X4XE E E E E 4X4X4X4X4X4X4X4X4XE E E E E 4X4X4X4X4X4X4X4X4XE { t.  ",
"  E E %X4X4X4X4X4X4X4X4X4X4X4X4X4X4X4X4X4X4X4X4XE E E E E 4X4X4XE E E E E 4X4X4X/.O.E O.4X4XE E E E E 4X4X4X4X4X4X4X4X4XE E {   ",
"  E E 4X4X4X4X4X4X4X4X4X4X4X4X4X4X4X4X4X4X4X4X4XE E E E E 4X4X4XE E E E E 4X4X/.E E E E ,.b.E E E E E 4X4X4X4X4X4X4X4X4XE E {   ",
"  { E 4X4X4X4X4X4X4X4X4X4X4X4X4X4X4X4X4X4X4X4X/.E E E E E 4X4X4XE E E E E 4X4Xm.E E E E E E E E E E { 4X4X4X4X4X4X4X4X4XE E E   ",
"  { E E.4X4X4X4X4X4X4X4X4X4X4X4X4X4X4X4X4X4X4XO.E E E E E 4X4X4XE E E E E a.4X/.E E E E E E E E E E B.4X4X4X4X4X4X4X4X4X{ E {   ",
"  E E E $X4X4X4X4X4X4X4X4X4X4X4X4X4X4X4X4X4X4XE E E E E ,.4X4X4XE E E E E E 4X4XE E E E E E E E E E 4X4X4X4X4X4X4X4X4X4XE E E   ",
"  E E E 4X4X4X4X4X4X4X4X6.E E E { l.4X4X4X4X4XE E E E E 4X4X4X4Xx.{ E E E E 4X4Xa.{ E E E E E E E { 4X4X4X4X4X4X4X4X4X4X{ E {   ",
"  s { E 4X4X4X4X4X4X4X6.{ E E E { E E E E E E E E E E E 4X4X4X4X4XE E E E E ,.4X4X{ E E E E E E E { 4X4X4X4X4X4X4X4X4X4XE E E   ",
"  % E E qX4X4X4X4X4X4XE E E E E E E E E E E E E E E { E 4X4X4X4X4X{ { E E E E /.4X4X{ E E E E E E E E N.4X4X4X4X4X4X4X4X{ E {   ",
"  = { E 4X4X4X4X4X4X4X6.E E E E E E E E E E E E E E { 2.4X4X4X4X4X/.E E E E E E E E { E E E E E E E E E N.4X4X4X4X4X4XwXE E E   ",
"  4 E E 4X4XqX4X4X4X4X4X6.{ E E E E E E E E E E E { { 4X4X4X4X4X4X4XO.E E E E E E E E E E E E E E E E E { 4X4X4X4X4X4X{.{ E E   ",
"    { E 4X4X4X4X4X4X4X4X4X4X4Xb.E E E E E E E E E { 4X4X4X4X4X4X4X4X4X{ E E E E E E E E E { { E E E E E E 4X4X4X4X4X4X&.E E {   ",
"    E E J.4X4X4X4X4X4X4X4X4X4X4X4X4X4X4X4X4X4X4X4X4X4X4X4X4X4X4X4X4X4X/.E { E E E E E E E ,.4Xl.{ E E E 2.4X4X4X4X4X4XE E E C   ",
"    { E { 4X4X4X4X4X4X4X4X4X4X4X4X4X4X4X4X4X4X4X4X4X4X4X4X4X4X4X4X4X4X4X/.{ E E E E E { P.4X4X4X4X2.E 2.4X4X4X4X4X4X4X{ E E     ",
"    { E E eX4X4X4X4X4X4X4X4X4X4X4X4X4X4X4X4X4X4X4X4X4X4X4X4X4X4X4X4X4X4X4X4X4X4X4X4X4Xb.O.b.4X4X4X4X4X4X4X4X4X4X4X4X=XE E E     ",
"    { E E Z.4X4X4X4X4X4X4X4X4X4X4X4X4X4X4X2.E E { E E E E E E E E E E O.4X4X4X4X4X4Xb.E E E b.4X4X4X4X4X4X4X4X4X4X4XD.{ E {     ",
"    E E E { yX4X4X4X4X4X4X4X4X4X4X4X4X4X2.E E E E E E E E E E E E E E E O.4X4X4X4X4X{ { E E { 4X4X4X4X4X4X4X4X4X4X4X{ E E !     ",
"    { { E E A.4X4X4X4X4X4X4X4X4X4X4X4X4X{ E E E E E E E E E E E E E E E E 4X4X4X4X4X{ E E E O.4X4X4X4X4X4X4X4X4X4X-X! E E       ",
"      E E E E '.4X4X4X4X4X4X4X4X4X4X4X4X6.{ E E E E E E E E E E E E E E E 4X4X4X4X4XE E E E E 4X4X4X4X4X4X4X4X4X4Xi.E E {       ",
"      -.E E E { tX4X4X4X4X4X4X4X4X4X4X4X4X2.E E { E E E E E E E E E E E H.4X4X4X4X4XE E E E E 4X4X4X4X4X4X4X4X4X9X{ E E E       ",
"        0.I E E c.qX4X4X4X4X4X4X4X4X4X4X4X4X4X4X4X4X2.E E E E E E E { H.4X4X4X4X4X4XE E E E E 4X4X4X4X4X4X4X4X4XG E E E         ",
"          S E E E |.4X4X4X4X4X4X4X4X4X4X4X4X4X4X4XO.E E E E E { { h.4X4X4X4X4X4X4X4XE E E E E 4X4X4X4X4X4X4X4X~.{ E E ]         ",
"            { E E _ ].4X4X4X4X4X4X4X4X4X4X4X4X4X,.E E E E E E { 4X4X4X4X4X4X4X4X4X4XE E E E E 4X4X4X4X4X4X4X4X{ E E E           ",
"            e.{ E E E Y.4X4X4X4X4X4X4X4X4X4X4XO.E E E E E { { 4X4X4X4X4X4X4X4X4X4X4X{ E E { { 4X4X4X4X4X4X4X,.{ E E             ",
"              p E E E I #X4X4X4X4X4X4X4X4X4X{ E E E E E E O.4X4X4X4X4X4X4X4X4X4X4X4X/.E E E /.4X4X4X4X4X4X6.E E E ]             ",
"                a { E E E #X4X4X4X4X4X4X4X{ { E E E E E E E E E E E E E l.4X4X4X4X4X4X/.m./.4X4X4X4X4X4X2.E E E -.              ",
"                  y { E E E +X4X4X4X4X4XO.E E E E E E E E E E E E E E E E l.4X4X4X4Xl.{ l.4X4X4X4X4X4XO.E E E >.                ",
"                    e E E E E `.4X4X4X4XE E E E E E E E E E E E E E E E E { 4X4X4Xl.E E E l.4X4X4XP.E E E { C                   ",
"                      y E E E E z.-X4X4XO.{ E E E E E E E E E E E E E E E l.4X4X4X{ E E E { 4X.X{ E E E _                       ",
"                        i { E E E { }.4X4XO.E E E E E { E E E E E E E E l.4X4X4X4Xl.E E { a.E E E E E l                         ",
"                          d I E E E E 4X4X4X4X4X4X4X4X4X4X4X4X4X4X4X4X4X4X4X4X4X4X4Xl.E { E E E E F f                           ",
"                              j E E E K.4X4X4XrX4X4X4X4X4X4X4X4X4X4X4X4X4X4X4X4X4X(.{ E E E E { u                               ",
"                                k E E E E E { E { W.4X4X4X4X4X4X4X4X4X4X4X4X4XR.E E E E I { 0 2                                 ",
"                                  r.I E E E E E E E E { E { { E E E E E E E E E E E { { 9 :                                     ",
"                                      V { E { { E E E E E E E E { E { E { E { E { 0 = 6                                         ",
"                                              > = w _ E { E E D @ X . O O + $ - 2                                               ",
"                                                      7 : 4 , ; - , 4 > 8                                                       ",
"                                                                                                                                "
};
