/* XPM */
static char *db8c4c952ea541d2f166fbdd64923537bhAiFPez93fw5KuT[] = {
/* columns rows colors chars-per-pixel */
"16 16 10 1 ",
"  c None",
". c #0026FF",
"X c #29C6C6",
"o c #05F5F5",
"O c #03F8F8",
"+ c #04F8F8",
"@ c #03FCFC",
"# c #03FDFD",
"$ c cyan",
"% c #03FFFF",
/* pixels */
"    o$$$$$#     ",
"  $$$$$$$$$$#   ",
"  $$$$$$$$$$$#  ",
" $$$$$$$$$$$$$# ",
"#$...$$$.$$$$$$ ",
"$$.$$$$.....$.$X",
"$$..$$$.$$$.$.$$",
"$$$..$$.$$$.$.$$",
"$$$$..$.$$$.$.$$",
"$$$$$.$.$$..$.$$",
"$.....$.....$.$$",
"#$$$$$$$$$$...$#",
" #$$$.....$$$.# ",
"  #$$$$..$$$.+  ",
"   #$$..$$$$.   ",
"    +......$$   "
};
