/* XPM */
static char *fde52fefa53f4956d9602425169965aevyjg4bSkMajrtAyh[] = {
/* columns rows colors chars-per-pixel */
"32 32 49 1 ",
"  c None",
". c #484848",
"X c gray35",
"o c #5D5D5D",
"O c #626262",
"+ c gray39",
"@ c #646464",
"# c #686868",
"$ c #6A6A6A",
"% c gray42",
"& c #6C6C6C",
"* c #6D6D6D",
"= c #6F6F6F",
"- c #0026FF",
"; c #4800FF",
": c #0094FF",
"> c #00AFFF",
", c #00BAFF",
"< c #00C8FF",
"1 c #00CCFF",
"2 c #00DEFF",
"3 c #00EBFF",
"4 c #00EDFF",
"5 c #00F2FF",
"6 c #00F7FF",
"7 c #07F8F8",
"8 c #00F8FF",
"9 c #00FCFF",
"0 c #01FEFE",
"q c #00FEFF",
"w c cyan",
"e c #07FEFE",
"r c #0AF8F8",
"t c #0FF8F8",
"y c #10F8F8",
"u c #12F8F8",
"i c #1EF8F8",
"p c #20F8F8",
"a c #25F8F8",
"s c #29F8F8",
"d c #2AF8F8",
"f c #32F8F8",
"g c #33F8F8",
"h c #32F9F9",
"j c #39F8F8",
"k c #3AF8F8",
"l c #43F8F8",
"z c #54F7F7",
"x c #56F8F8",
/* pixels */
"              %O+$              ",
"           ---------.           ",
"        X---:::::::----o        ",
"       ---:::f00008:::---       ",
"      --::100000000004::--      ",
"     --::j000000000000j::--     ",
"    --::i00000000000000r::--    ",
"   --::;;00000;;;;;;;000s::-.   ",
"  --:x0;0;;;;0;00000;000;a:--=  ",
"  -::00;000000;00000;000;01:--  ",
"  -:l00;000000;00000;000;00::-  ",
" --:000;000000;00000;000;00t:-- ",
" -::000;000000;00000;000;000::- ",
" -:f000;;;;;00;00000;000;000::- ",
" -:00000000;;0;00000;000;;00u:- ",
"&-:000000000;0;00000;0000;000:-@",
"&-:000000000;0;00000;0000;000:-$",
" -:000000000;0;00000;0000;000:- ",
" -:00000000;;0;000;;;0000;00e:- ",
" -:f0000;;;;00;;;;;;;;000;;0,:- ",
" --:00000000000000000;;000;7:-- ",
"  -:4000000;;0000000000000;0:-- ",
"  --:s0000;;;;;;;;;;000000;5:-  ",
"  =-::z0000000;;;;0000000t;:--  ",
"   --::000000;;00000000;;::--   ",
"    --:20000;;000000000;;:--    ",
"     --:0000;;;;;;;000u::--     ",
"      -->807000000000t::--      ",
"       --::::p000000<::--       ",
"        ----::::::::----        ",
"           ----------           ",
"               $%               "
};
